<svg width="33" height="32" viewBox="0 0 33 32" fill="none" xmlns="http://www.w3.org/2000/svg">
<path d="M7.57635 27.3334C6.90279 27.3334 6.33268 27.1 5.86602 26.6334C5.39935 26.1667 5.16602 25.5966 5.16602 24.923V7.07702C5.16602 6.40346 5.39935 5.83335 5.86602 5.36669C6.33268 4.90002 6.90279 4.66669 7.57635 4.66669H17.5763V6.66669H7.57635C7.45657 6.66669 7.35824 6.70513 7.28135 6.78202C7.20446 6.85891 7.16602 6.95724 7.16602 7.07702V24.923C7.16602 25.0428 7.20446 25.1411 7.28135 25.218C7.35824 25.2949 7.45657 25.3334 7.57635 25.3334H25.4223C25.5421 25.3334 25.6405 25.2949 25.7173 25.218C25.7942 25.1411 25.8327 25.0428 25.8327 24.923V14.923H27.8327V24.923C27.8327 25.5966 27.5993 26.1667 27.1327 26.6334C26.666 27.1 26.0959 27.3334 25.4223 27.3334H7.57635ZM9.01235 22.2564H23.9863L19.3327 16.0514L15.3327 21.2437L12.4993 17.641L9.01235 22.2564ZM23.166 12V9.33335H20.4993V7.33335H23.166V4.66669H25.166V7.33335H27.8327V9.33335H25.166V12H23.166Z" fill="#BDC3C7"/>
</svg>
