<svg width="172" height="40" viewBox="0 0 172 40" fill="none" xmlns="http://www.w3.org/2000/svg">
<path d="M25.3639 6H14.6362L6 14.6361V25.3638L14.6362 34H25.3639L34 25.3638V14.6361L25.3639 6ZM16.1205 25.4988L10.588 19.9663L16.1205 14.4337C18.212 12.3422 21.653 12.3422 23.7446 14.4337L29.2771 19.9663L23.7446 25.4988C21.653 27.5904 18.2795 27.5904 16.1205 25.4988Z" fill="#2C3E50"/>
<path d="M56.8968 28.3161C55.3462 28.3161 53.9989 27.9849 52.8548 27.3226C51.7108 26.6452 50.8226 25.6968 50.1903 24.4774C49.5731 23.2581 49.2645 21.8204 49.2645 20.1645C49.2645 18.4785 49.5882 17.0032 50.2355 15.7387C50.8828 14.4591 51.7785 13.4656 52.9226 12.7581C54.0817 12.0505 55.4215 11.6968 56.9419 11.6968C57.6946 11.6968 58.3344 11.772 58.8613 11.9226C59.4032 12.0581 59.8624 12.2312 60.2387 12.4419C60.6151 12.6376 60.9387 12.8108 61.2097 12.9613C61.4957 13.0968 61.7516 13.1645 61.9774 13.1645C62.2032 13.1645 62.3763 13.0591 62.4968 12.8484C62.6323 12.6376 62.7301 12.2914 62.7903 11.8097H63.6935C63.6785 12.3065 63.6634 12.8258 63.6484 13.3677C63.6333 13.8946 63.6183 14.5194 63.6032 15.2419C63.6032 15.9495 63.6032 16.8452 63.6032 17.929H62.7C62.5344 16.8301 62.2258 15.8968 61.7742 15.129C61.3376 14.3613 60.7806 13.7742 60.1032 13.3677C59.4258 12.9613 58.6505 12.7581 57.7774 12.7581C56.2269 12.7581 55.0151 13.3903 54.1419 14.6548C53.2839 15.9194 52.8548 17.6957 52.8548 19.9839C52.8548 22.2871 53.2914 24.086 54.1645 25.3806C55.0376 26.6602 56.2495 27.3 57.8 27.3C58.6731 27.3 59.4484 27.0968 60.1258 26.6903C60.8183 26.2688 61.3828 25.6667 61.8194 24.8839C62.2559 24.1011 62.5495 23.1677 62.7 22.0839H63.6032C63.6032 23.1226 63.6032 24.0032 63.6032 24.7258C63.6183 25.4484 63.6333 26.0806 63.6484 26.6226C63.6634 27.1645 63.6785 27.6914 63.6935 28.2032H62.7903C62.7301 27.7065 62.6398 27.3602 62.5194 27.1645C62.3989 26.9688 62.2183 26.871 61.9774 26.871C61.7366 26.871 61.4806 26.9462 61.2097 27.0968C60.9387 27.2323 60.6151 27.3978 60.2387 27.5935C59.8624 27.7892 59.4032 27.9548 58.8613 28.0903C58.3194 28.2409 57.6645 28.3161 56.8968 28.3161ZM74.3719 28V27.1194C74.9289 27.1043 75.3052 26.9839 75.5009 26.7581C75.7117 26.5172 75.8171 26.0957 75.8171 25.4935V19.8935C75.8171 19.0806 75.659 18.471 75.3429 18.0645C75.0267 17.6581 74.5525 17.4548 73.9203 17.4548C73.4235 17.4548 72.9644 17.5978 72.5429 17.8839C72.1214 18.1699 71.7525 18.5839 71.4364 19.1258L71.459 18.1323C71.8353 17.4548 72.3472 16.9355 72.9945 16.5742C73.6568 16.1978 74.402 16.0097 75.23 16.0097C76.4343 16.0097 77.3525 16.371 77.9848 17.0935C78.6321 17.8011 78.9558 18.8247 78.9558 20.1645V25.4935C78.9558 26.0957 79.1063 26.5172 79.4074 26.7581C79.7235 26.9839 80.2805 27.1043 81.0784 27.1194V28C80.8525 27.9849 80.5364 27.9774 80.13 27.9774C79.7386 27.9624 79.3095 27.9473 78.8429 27.9323C78.3762 27.9172 77.9171 27.9097 77.4654 27.9097C76.8633 27.9097 76.2687 27.9247 75.6816 27.9548C75.0945 27.9699 74.6579 27.9849 74.3719 28ZM66.288 28V27.1194C67.1009 27.1043 67.6579 26.9839 67.959 26.7581C68.2751 26.5172 68.4332 26.0957 68.4332 25.4935V13.4355C68.4332 12.743 68.2751 12.2462 67.959 11.9452C67.6429 11.6441 67.0859 11.4785 66.288 11.4484V10.5677C66.6343 10.5828 66.9579 10.5978 67.259 10.6129C67.5751 10.628 67.8988 10.6355 68.23 10.6355C68.8472 10.6355 69.4267 10.6129 69.9687 10.5677C70.5257 10.5075 71.0525 10.4247 71.5493 10.3194V25.4935C71.5493 26.0957 71.6547 26.5172 71.8654 26.7581C72.0762 26.9839 72.4601 27.1043 73.0171 27.1194V28C72.7009 27.9849 72.2644 27.9699 71.7074 27.9548C71.1654 27.9247 70.6085 27.9097 70.0364 27.9097C69.359 27.9097 68.6665 27.9247 67.959 27.9548C67.2515 27.9699 66.6945 27.9849 66.288 28ZM82.1462 28V27.1194C82.9591 27.1043 83.5161 26.9839 83.8171 26.7581C84.1333 26.5172 84.2913 26.0957 84.2913 25.4935V19.1935C84.2913 18.486 84.1257 17.9892 83.7946 17.7032C83.4784 17.4022 82.929 17.2366 82.1462 17.2065V16.3258C82.5677 16.3409 82.9214 16.3559 83.2075 16.371C83.5085 16.386 83.8322 16.3935 84.1784 16.3935C85.4128 16.3935 86.4892 16.2882 87.4075 16.0774V25.3129C87.4075 25.9753 87.6107 26.4419 88.0171 26.7129C88.4386 26.9688 89.1687 27.1043 90.2075 27.1194V28C89.9214 27.9849 89.5376 27.9774 89.0558 27.9774C88.5892 27.9624 88.0774 27.9473 87.5204 27.9323C86.9784 27.9172 86.444 27.9097 85.9171 27.9097C85.1494 27.9097 84.4118 27.9247 83.7042 27.9548C83.0118 27.9699 82.4924 27.9849 82.1462 28ZM91.201 20.5258C90.8247 20.5258 90.5236 20.4204 90.2978 20.2097C90.072 19.9989 89.9591 19.728 89.9591 19.3968C89.9591 19.171 89.9967 18.9753 90.072 18.8097C90.1472 18.629 90.2225 18.4634 90.2978 18.3129C90.3731 18.1473 90.4107 17.9892 90.4107 17.8387C90.4107 17.5075 90.1999 17.3419 89.7784 17.3419C89.4623 17.3419 89.1386 17.4172 88.8075 17.5677C88.4913 17.7183 88.1978 17.929 87.9268 18.2C87.6709 18.4559 87.4752 18.757 87.3397 19.1032L87.2946 18.1548C87.6558 17.4774 88.1451 16.9505 88.7623 16.5742C89.3795 16.1978 90.0268 16.0097 90.7042 16.0097C91.4118 16.0097 91.9688 16.2204 92.3752 16.6419C92.7967 17.0484 93.0075 17.6129 93.0075 18.3355C93.0075 18.9978 92.8419 19.5323 92.5107 19.9387C92.1795 20.3301 91.7429 20.5258 91.201 20.5258ZM100.13 28.3161C99.0012 28.3161 98.0001 28.0978 97.127 27.6613C96.2539 27.2097 95.569 26.5323 95.0722 25.629C94.5754 24.7108 94.327 23.5591 94.327 22.1742C94.327 20.7892 94.5754 19.6376 95.0722 18.7194C95.569 17.8011 96.2539 17.1237 97.127 16.6871C98.0001 16.2355 99.0012 16.0097 100.13 16.0097C101.274 16.0097 102.275 16.2355 103.133 16.6871C103.992 17.1237 104.669 17.8011 105.166 18.7194C105.662 19.6376 105.911 20.7892 105.911 22.1742C105.911 23.5591 105.662 24.7108 105.166 25.629C104.669 26.5323 103.992 27.2097 103.133 27.6613C102.275 28.0978 101.274 28.3161 100.13 28.3161ZM100.13 27.4355C100.853 27.4355 101.447 27.0215 101.914 26.1935C102.396 25.3505 102.637 24.0108 102.637 22.1742C102.637 20.3075 102.396 18.9602 101.914 18.1323C101.447 17.2892 100.853 16.8677 100.13 16.8677C99.3926 16.8677 98.7905 17.2892 98.3238 18.1323C97.8571 18.9602 97.6238 20.3075 97.6238 22.1742C97.6238 24.0108 97.8571 25.3505 98.3238 26.1935C98.7905 27.0215 99.3926 27.4355 100.13 27.4355ZM115.878 28V27.1194C116.435 27.1043 116.812 26.9839 117.008 26.7581C117.218 26.5172 117.324 26.0957 117.324 25.4935V19.8935C117.324 19.0806 117.158 18.471 116.827 18.0645C116.511 17.6581 116.037 17.4548 115.404 17.4548C114.908 17.4548 114.448 17.5978 114.027 17.8839C113.605 18.1699 113.244 18.5839 112.943 19.1258V18.1323C113.319 17.4548 113.831 16.9355 114.478 16.5742C115.141 16.1978 115.894 16.0097 116.737 16.0097C117.941 16.0097 118.859 16.371 119.491 17.0935C120.124 17.8011 120.44 18.8247 120.44 20.1645V25.4935C120.44 26.0957 120.598 26.5172 120.914 26.7581C121.23 26.9839 121.787 27.1043 122.585 27.1194V28C122.359 27.9849 122.043 27.9774 121.637 27.9774C121.245 27.9624 120.809 27.9473 120.327 27.9323C119.86 27.9172 119.401 27.9097 118.949 27.9097C118.362 27.9097 117.775 27.9247 117.188 27.9548C116.601 27.9699 116.164 27.9849 115.878 28ZM107.795 28V27.1194C108.608 27.1043 109.164 26.9839 109.466 26.7581C109.782 26.5172 109.94 26.0957 109.94 25.4935V19.1935C109.94 18.486 109.774 17.9892 109.443 17.7032C109.127 17.4022 108.577 17.2366 107.795 17.2065V16.3258C108.111 16.3409 108.427 16.3559 108.743 16.371C109.059 16.386 109.383 16.3935 109.714 16.3935C110.361 16.3935 110.963 16.371 111.52 16.3258C112.077 16.2656 112.589 16.1828 113.056 16.0774V25.4935C113.056 26.0957 113.161 26.5172 113.372 26.7581C113.583 26.9839 113.959 27.1043 114.501 27.1194V28C114.185 27.9849 113.756 27.9699 113.214 27.9548C112.672 27.9247 112.108 27.9097 111.52 27.9097C110.858 27.9097 110.173 27.9247 109.466 27.9548C108.773 27.9699 108.216 27.9849 107.795 28ZM130.044 28.3161C128.915 28.3161 127.914 28.0978 127.041 27.6613C126.168 27.2097 125.483 26.5323 124.986 25.629C124.489 24.7108 124.241 23.5591 124.241 22.1742C124.241 20.7892 124.489 19.6376 124.986 18.7194C125.483 17.8011 126.168 17.1237 127.041 16.6871C127.914 16.2355 128.915 16.0097 130.044 16.0097C131.188 16.0097 132.189 16.2355 133.048 16.6871C133.906 17.1237 134.583 17.8011 135.08 18.7194C135.577 19.6376 135.825 20.7892 135.825 22.1742C135.825 23.5591 135.577 24.7108 135.08 25.629C134.583 26.5323 133.906 27.2097 133.048 27.6613C132.189 28.0978 131.188 28.3161 130.044 28.3161ZM130.044 27.4355C130.767 27.4355 131.362 27.0215 131.828 26.1935C132.31 25.3505 132.551 24.0108 132.551 22.1742C132.551 20.3075 132.31 18.9602 131.828 18.1323C131.362 17.2892 130.767 16.8677 130.044 16.8677C129.307 16.8677 128.705 17.2892 128.238 18.1323C127.771 18.9602 127.538 20.3075 127.538 22.1742C127.538 24.0108 127.771 25.3505 128.238 26.1935C128.705 27.0215 129.307 27.4355 130.044 27.4355ZM138.468 28V27.1194C139.236 27.0892 139.808 27.029 140.184 26.9387C140.561 26.8333 140.809 26.6527 140.929 26.3968C141.05 26.1258 141.11 25.7194 141.11 25.1774V14.8355C141.11 14.2935 141.05 13.8946 140.929 13.6387C140.809 13.3677 140.561 13.1796 140.184 13.0742C139.808 12.9688 139.236 12.9086 138.468 12.8935V12.0129C140.064 12.0581 142.608 12.0806 146.1 12.0806C146.657 12.0806 147.207 12.0806 147.749 12.0806C148.306 12.0806 148.833 12.0731 149.329 12.0581C149.841 12.043 150.308 12.028 150.729 12.0129C150.729 12.8559 150.76 13.6839 150.82 14.4968C150.895 15.2946 151 16.0699 151.136 16.8226H150.233C150.007 15.814 149.751 15.0312 149.465 14.4742C149.179 13.9172 148.818 13.5258 148.381 13.3C147.944 13.0742 147.38 12.9613 146.687 12.9613H143.391V25.1774C143.391 25.7344 143.466 26.1484 143.617 26.4194C143.767 26.6753 144.091 26.8484 144.587 26.9387C145.084 27.029 145.837 27.0892 146.846 27.1194V28C146.409 27.9849 145.799 27.9699 145.017 27.9548C144.234 27.9398 143.323 27.9323 142.284 27.9323C141.456 27.9323 140.719 27.9398 140.071 27.9548C139.424 27.9548 138.89 27.9699 138.468 28ZM142.668 20.6161V19.7355H146.936V20.6161H142.668ZM147.613 23.9355C147.538 23.0925 147.418 22.4301 147.252 21.9484C147.086 21.4667 146.838 21.128 146.507 20.9323C146.176 20.7215 145.732 20.6161 145.175 20.6161V19.7355C145.942 19.7355 146.499 19.5172 146.846 19.0806C147.207 18.6441 147.44 17.9065 147.546 16.8677H148.336C148.276 17.7409 148.246 18.4183 148.246 18.9C148.261 19.3667 148.268 19.7957 148.268 20.1871C148.268 20.5032 148.268 20.8269 148.268 21.1581C148.283 21.4742 148.298 21.8505 148.313 22.2871C148.343 22.7237 148.373 23.2731 148.404 23.9355H147.613ZM153.07 28V27.1194C154.003 27.1043 154.658 26.9839 155.034 26.7581C155.411 26.5323 155.599 26.1108 155.599 25.4935V19.2387C155.599 18.5462 155.411 18.0495 155.034 17.7484C154.673 17.4473 154.018 17.2817 153.07 17.2516V16.371C153.371 16.386 153.68 16.4011 153.996 16.4161C154.327 16.4312 154.651 16.4387 154.967 16.4387C155.509 16.4387 156.013 16.4161 156.48 16.371C156.946 16.3108 157.383 16.228 157.789 16.1226V25.4935C157.789 26.1108 157.97 26.5323 158.331 26.7581C158.707 26.9839 159.37 27.1043 160.318 27.1194V28C160.092 27.9849 159.776 27.9774 159.37 27.9774C158.978 27.9624 158.549 27.9473 158.083 27.9323C157.616 27.9172 157.149 27.9097 156.683 27.9097C156.005 27.9097 155.32 27.9247 154.628 27.9548C153.935 27.9699 153.416 27.9849 153.07 28ZM156.615 13.7065C156.194 13.7065 155.832 13.5634 155.531 13.2774C155.23 12.9763 155.08 12.6075 155.08 12.171C155.08 11.7495 155.23 11.3957 155.531 11.1097C155.832 10.8086 156.194 10.6581 156.615 10.6581C157.037 10.6581 157.398 10.8086 157.699 11.1097C158 11.3957 158.151 11.7495 158.151 12.171C158.151 12.6075 158 12.9763 157.699 13.2774C157.398 13.5634 157.037 13.7065 156.615 13.7065ZM167.365 28.3161C166.236 28.3161 165.393 27.9925 164.836 27.3452C164.279 26.6828 164.001 25.6892 164.001 24.3645V17.2516H161.291V16.3935H164.001V12.9387C164.422 12.9237 164.814 12.8935 165.175 12.8484C165.536 12.7882 165.867 12.7129 166.168 12.6226V16.3935H170.12V17.2516H166.168V24.9968C166.168 25.7194 166.311 26.2538 166.597 26.6C166.883 26.9312 167.32 27.0968 167.907 27.0968C168.449 27.0968 168.893 26.9237 169.239 26.5774C169.601 26.2312 169.872 25.7194 170.052 25.0419L170.752 25.2452C170.526 26.2989 170.135 27.0742 169.578 27.571C169.036 28.0677 168.299 28.3161 167.365 28.3161Z" fill="#2C3E50"/>
</svg>
